<svg width="623.548" height="99.068" viewBox="0 0 623.548 99.068" xmlns="http://www.w3.org/2000/svg"><g id="svgGroup" stroke-linecap="round" fill-rule="evenodd" font-size="9pt" stroke="#000000" stroke-width="0.25mm" fill="#000000" style="stroke:#000000;stroke-width:0.25mm;fill:#000000"><path d="M 0.036 82.439 C 0.136 81.539 0.236 80.539 0.736 79.739 C 0.936 79.139 1.436 78.939 2.036 79.139 C 2.436 79.439 3.536 81.239 3.336 81.739 C 2.836 83.239 2.736 84.639 3.136 85.839 C 4.036 87.039 5.536 87.639 7.436 88.439 C 9.036 88.939 10.936 89.339 13.236 89.539 C 27.436 90.939 50.836 82.139 50.836 73.839 C 50.836 68.139 37.036 64.239 26.836 59.239 C 20.436 56.039 13.136 51.239 13.636 44.139 C 14.936 26.239 54.636 8.839 82.136 8.839 C 86.236 8.839 94.336 10.239 98.336 15.739 C 100.236 18.339 100.536 21.239 100.436 25.339 C 100.036 27.339 97.436 25.039 97.436 23.939 C 97.536 21.639 97.736 18.839 96.736 16.939 C 94.436 12.439 86.236 11.939 82.136 11.939 C 53.936 11.939 17.436 30.439 16.236 45.439 C 16.036 48.939 20.936 52.539 26.636 55.739 C 36.936 61.539 52.936 64.539 52.936 74.639 C 52.936 86.039 28.636 94.039 13.636 92.539 C 6.536 91.839 -0.564 88.539 0.036 82.439 Z" id="0" vector-effect="non-scaling-stroke"/><path d="M 60.836 67.139 C 60.836 63.339 64.236 58.939 68.036 57.039 C 68.036 56.339 68.236 55.739 68.536 55.239 C 69.136 54.339 70.336 53.539 71.636 54.139 C 73.836 55.239 74.236 57.839 74.236 59.839 C 76.836 60.339 80.436 60.539 85.836 60.039 C 87.136 60.039 87.636 62.439 86.236 62.639 C 82.636 63.239 77.036 63.339 73.736 62.539 C 71.736 68.739 67.836 72.539 64.836 72.539 C 62.436 72.539 60.836 69.039 60.836 67.139 Z M 71.236 61.739 C 69.236 66.339 66.236 69.539 64.536 69.539 C 61.136 69.539 64.436 62.039 69.036 59.839 C 69.736 60.839 70.436 61.339 71.236 61.739 Z M 71.936 59.039 C 71.236 58.739 70.936 58.539 70.736 58.339 C 70.736 58.139 70.736 57.939 70.436 57.539 C 70.821 56.769 71.02 56.833 71.035 56.839 C 71.536 57.139 72.036 57.639 71.936 59.039 Z" id="1" vector-effect="non-scaling-stroke"/><path d="M 86.836 65.239 C 85.836 67.739 85.136 69.739 84.836 71.339 C 84.736 72.139 84.636 72.639 84.836 73.039 C 85.636 73.439 87.236 73.339 89.636 72.639 C 98.236 69.839 107.136 63.039 112.936 58.939 C 114.036 58.139 115.036 60.239 114.136 61.039 C 111.136 63.539 105.936 67.939 99.836 71.439 C 95.536 73.939 90.436 76.339 86.936 76.239 C 84.436 76.239 82.436 74.239 82.236 71.939 C 81.936 69.639 83.036 66.439 84.336 63.339 C 88.936 52.339 99.936 36.639 107.836 28.239 C 111.736 24.039 115.636 20.739 118.236 20.839 C 119.236 20.839 120.136 22.439 120.136 23.139 C 120.236 24.339 119.136 27.039 117.636 29.939 C 110.436 43.039 96.436 58.139 87.636 63.439 L 86.836 65.239 Z M 116.736 24.739 C 111.636 36.539 101.236 48.739 90.536 57.939 C 95.336 49.539 103.136 37.839 110.136 30.539 C 112.836 27.639 115.036 25.739 116.736 24.739 Z" id="2" vector-effect="non-scaling-stroke"/><path d="M 126.136 55.239 C 127.136 54.139 129.336 56.939 128.136 58.039 C 125.536 61.439 121.536 66.639 121.536 69.139 C 121.536 69.939 121.936 70.239 122.636 70.239 C 126.236 70.239 135.836 63.739 139.436 61.239 C 140.536 60.439 141.336 62.539 140.136 63.639 C 136.536 67.139 127.536 73.039 123.736 73.039 C 120.336 73.039 118.636 70.739 118.636 67.539 C 116.236 69.539 112.936 72.039 110.136 72.039 C 108.536 72.039 106.236 70.639 106.236 69.039 C 105.936 65.439 110.236 61.139 112.536 59.039 C 114.736 57.039 117.436 55.139 120.336 55.139 C 121.836 55.139 123.536 56.139 124.336 57.239 L 126.136 55.239 Z M 122.936 58.939 C 115.636 66.139 111.036 69.639 109.036 69.639 C 109.136 65.639 117.136 57.639 120.836 57.639 C 121.836 57.639 122.436 58.339 122.936 58.939 Z M 122.836 51.639 C 122.836 49.739 128.236 47.139 130.536 46.739 C 131.436 46.539 131.536 49.639 130.736 49.939 C 128.936 50.539 125.136 52.139 123.836 53.139 C 123.536 53.339 122.936 52.439 122.836 51.639 Z" id="3" vector-effect="non-scaling-stroke"/><path d="M 155.536 59.639 C 158.536 57.039 161.536 55.139 163.936 56.339 C 165.236 57.139 165.636 58.839 165.636 60.239 C 165.636 61.239 165.536 62.439 165.536 63.539 C 165.536 66.339 165.936 67.439 167.836 67.439 C 170.336 67.439 176.236 64.739 182.036 60.339 C 183.136 59.539 183.536 62.239 182.636 63.139 C 178.736 66.539 172.336 70.639 168.436 70.639 C 164.236 70.639 163.236 66.039 163.236 62.839 C 163.236 59.239 163.336 58.639 163.036 58.639 C 159.336 58.639 149.036 70.339 146.636 73.339 C 145.736 74.539 144.136 72.439 144.636 71.539 L 154.136 55.439 C 154.436 54.939 155.036 54.739 155.536 55.039 C 156.036 55.539 156.936 56.839 156.536 57.439 L 154.736 60.339 L 155.536 59.639 Z" id="4" vector-effect="non-scaling-stroke"/><path d="M 196.636 55.239 C 197.636 54.139 199.836 56.939 198.636 58.039 C 196.036 61.439 192.036 66.639 192.036 69.139 C 192.036 69.939 192.436 70.239 193.136 70.239 C 196.736 70.239 206.336 63.739 209.936 61.239 C 211.036 60.439 211.836 62.539 210.636 63.639 C 207.036 67.139 198.036 73.039 194.236 73.039 C 190.836 73.039 189.136 70.739 189.136 67.539 C 186.736 69.539 182.536 73.139 179.736 73.139 C 178.136 73.139 175.836 71.739 175.836 70.139 C 175.536 66.539 180.736 61.139 183.036 59.039 C 185.236 57.039 187.936 55.139 190.836 55.139 C 192.336 55.139 194.036 56.139 194.836 57.239 L 196.636 55.239 Z M 193.436 58.939 C 186.136 66.139 180.636 70.739 178.636 70.739 C 178.736 66.739 187.636 57.639 191.336 57.639 C 192.336 57.639 192.936 58.339 193.436 58.939 Z" id="5" vector-effect="non-scaling-stroke"/><path d="M 308.636 10.239 C 320.336 9.339 331.836 9.139 338.736 10.339 C 339.736 10.539 340.836 13.539 339.536 13.439 C 330.436 12.339 317.936 12.739 305.836 13.739 C 294.436 28.339 270.936 62.939 256.836 85.439 C 273.736 84.839 290.136 84.839 295.436 85.939 C 296.136 86.039 297.536 87.539 297.536 88.139 C 297.536 88.739 297.036 89.139 296.336 89.039 C 286.636 87.939 269.136 88.039 254.836 88.639 C 252.836 91.839 251.136 94.739 249.736 97.239 L 249.636 97.439 L 249.136 98.739 C 248.736 99.739 247.736 98.239 247.436 97.139 C 244.036 90.339 225.036 91.139 219.236 91.939 C 217.236 92.139 215.436 89.039 217.636 88.639 C 224.936 87.239 238.636 86.139 252.736 85.539 C 265.436 64.539 288.536 30.739 301.136 14.139 C 289.036 15.439 277.736 17.239 271.236 18.839 C 270.236 18.639 268.336 16.439 269.536 15.939 C 272.536 14.639 287.836 12.139 303.836 10.639 L 306.536 7.439 C 306.836 7.039 307.536 7.039 307.936 7.439 C 308.636 8.039 309.336 9.339 308.936 9.939 L 308.636 10.239 Z M 247.536 94.439 C 244.036 91.139 241.036 90.439 237.536 89.839 C 240.736 89.439 245.436 89.039 250.736 88.839 C 249.536 90.839 248.436 92.739 247.536 94.439 Z" id="7" vector-effect="non-scaling-stroke"/><path d="M 317.236 67.839 C 317.236 65.539 317.936 63.639 317.936 61.639 C 314.836 63.339 310.536 67.539 309.236 68.139 C 308.536 68.439 307.836 66.739 307.836 65.839 C 307.836 63.639 310.436 59.539 311.136 56.639 C 308.036 56.639 297.736 68.839 294.636 71.939 C 293.436 73.139 292.436 70.739 292.836 69.839 C 294.236 67.239 300.136 58.539 302.136 56.139 C 302.536 55.639 303.136 55.639 303.536 55.939 C 303.836 56.239 304.236 57.639 304.036 58.039 C 305.936 56.339 309.036 53.939 311.136 53.939 C 312.736 53.939 313.436 55.539 313.436 57.039 C 313.436 58.739 312.736 60.639 312.236 61.939 C 313.936 60.539 316.136 58.739 318.436 58.739 C 321.436 58.739 319.436 67.039 319.436 69.139 C 322.836 69.839 331.436 64.139 333.436 62.839 C 334.836 61.939 335.236 64.439 334.336 65.139 C 331.636 67.139 324.936 72.239 320.436 72.239 C 317.836 72.239 317.236 69.639 317.236 67.839 Z" id="8" vector-effect="non-scaling-stroke"/><path d="M 349.936 55.239 C 350.936 54.139 353.136 56.939 351.936 58.039 C 349.336 61.439 345.336 66.639 345.336 69.139 C 345.336 69.939 345.736 70.239 346.436 70.239 C 350.036 70.239 359.636 63.739 363.236 61.239 C 364.336 60.439 365.136 62.539 363.936 63.639 C 360.336 67.139 351.336 73.039 347.536 73.039 C 344.136 73.039 342.436 70.739 342.436 67.539 C 340.036 69.539 335.836 73.139 333.036 73.139 C 331.436 73.139 329.136 71.739 329.136 70.139 C 328.836 66.539 334.036 61.139 336.336 59.039 C 338.536 57.039 341.236 55.139 344.136 55.139 C 345.636 55.139 347.336 56.139 348.136 57.239 L 349.936 55.239 Z M 346.736 58.939 C 339.436 66.139 333.936 70.739 331.936 70.739 C 332.036 66.739 340.936 57.639 344.636 57.639 C 345.636 57.639 346.236 58.339 346.736 58.939 Z" id="9" vector-effect="non-scaling-stroke"/><path d="M 367.836 59.639 C 370.836 57.039 373.836 55.139 376.236 56.339 C 377.536 57.139 377.936 58.839 377.936 60.239 C 377.936 61.239 377.836 62.439 377.836 63.539 C 377.836 66.339 378.236 67.439 380.136 67.439 C 382.636 67.439 388.536 64.739 394.336 60.339 C 395.436 59.539 395.836 62.239 394.936 63.139 C 391.036 66.539 384.636 70.639 380.736 70.639 C 376.536 70.639 375.536 66.039 375.536 62.839 C 375.536 59.239 375.636 58.639 375.336 58.639 C 371.636 58.639 361.336 70.339 358.936 73.339 C 358.036 74.539 356.436 72.439 356.936 71.539 L 366.436 55.439 C 366.736 54.939 367.336 54.739 367.836 55.039 C 368.336 55.539 369.236 56.839 368.836 57.439 L 367.036 60.339 L 367.836 59.639 Z" id="10" vector-effect="non-scaling-stroke"/><path d="M 394.136 73.639 C 392.136 73.639 389.936 70.939 389.936 69.239 C 389.936 67.939 390.536 66.339 391.336 64.839 C 392.936 61.639 396.736 56.539 398.736 54.439 C 399.536 53.339 401.636 56.039 400.636 57.039 C 398.736 59.139 395.436 63.539 393.936 66.439 C 393.136 67.939 392.836 69.439 392.836 70.139 C 393.136 70.239 393.336 70.239 393.536 70.239 C 397.536 70.239 405.636 65.139 411.336 60.739 C 412.436 59.939 412.836 62.739 411.636 63.839 C 409.136 66.039 398.336 73.639 394.136 73.639 Z M 402.536 48.539 C 403.636 47.239 404.836 45.539 406.336 44.239 C 407.636 43.239 409.336 45.839 408.236 46.739 C 407.036 47.839 406.036 49.839 404.436 51.139 C 403.136 52.139 401.636 49.539 402.536 48.539 Z" id="11" vector-effect="non-scaling-stroke"/><path d="M 496.436 21.439 C 496.736 20.939 497.336 20.839 497.936 21.239 C 498.436 21.539 498.736 23.539 498.436 23.939 C 494.636 29.239 490.436 35.239 486.036 41.639 C 484.836 46.739 482.436 52.439 479.436 58.139 C 502.436 59.839 539.736 42.639 537.336 19.539 C 537.036 16.639 536.036 14.239 534.336 12.039 C 527.436 4.539 512.436 2.139 498.236 3.639 C 474.136 6.039 452.936 16.439 441.736 28.239 C 433.236 37.239 430.536 46.739 436.436 54.539 C 438.236 56.439 440.636 58.239 443.636 59.839 C 444.236 60.239 445.536 61.639 445.136 62.339 C 444.836 62.939 444.136 63.039 443.736 62.839 C 439.936 60.839 437.036 58.339 435.136 55.839 C 426.936 47.139 429.636 35.739 439.136 25.739 C 450.736 13.439 472.536 2.939 497.036 0.439 C 512.036 -1.161 529.136 1.439 536.136 11.039 C 538.436 13.539 540.036 16.839 540.336 20.639 C 542.236 46.339 503.636 63.139 479.336 61.239 C 492.336 72.639 505.536 81.539 517.236 87.439 C 526.836 92.039 534.936 94.739 541.136 94.839 C 542.236 94.939 543.436 94.839 544.436 94.739 C 547.336 93.839 549.136 92.039 549.736 89.039 C 550.136 88.339 551.736 87.839 552.636 87.939 C 553.136 87.939 553.436 88.639 553.236 89.139 C 552.436 93.439 549.436 95.939 545.136 96.539 C 543.336 97.239 541.536 97.339 539.436 97.139 C 532.936 96.939 524.336 94.239 514.836 89.539 C 504.836 84.539 493.536 77.339 482.336 67.939 L 476.836 63.039 C 468.836 76.739 458.336 89.739 453.536 93.539 C 453.036 94.039 452.036 93.739 451.936 92.939 C 451.836 90.639 451.936 89.139 452.936 87.139 C 455.836 80.939 462.936 69.839 471.036 57.939 L 468.236 55.339 C 465.836 53.839 469.136 49.439 470.836 51.439 L 473.236 54.639 L 483.836 39.439 C 484.536 35.639 484.536 32.239 483.436 29.639 C 482.036 26.539 477.936 26.239 477.936 25.839 C 477.336 23.039 483.236 24.039 485.836 29.339 C 486.536 30.939 486.936 32.839 486.936 34.939 L 496.436 21.439 Z M 473.536 60.139 L 474.636 61.039 C 468.036 72.339 459.836 82.839 456.336 86.639 C 461.536 78.339 467.436 69.239 473.536 60.139 Z M 476.436 57.839 L 475.536 57.639 L 475.336 57.439 C 476.836 55.139 478.436 52.839 480.036 50.539 C 478.936 52.939 477.736 55.339 476.436 57.839 Z" id="13" vector-effect="non-scaling-stroke"/><path d="M 530.536 67.139 C 530.536 63.339 533.936 58.939 537.736 57.039 C 537.736 56.339 537.936 55.739 538.236 55.239 C 538.836 54.339 540.036 53.539 541.336 54.139 C 543.536 55.239 543.936 57.839 543.936 59.839 C 546.536 60.339 550.136 60.539 555.536 60.039 C 556.836 60.039 557.336 62.439 555.936 62.639 C 552.336 63.239 546.736 63.339 543.436 62.539 C 541.436 68.739 537.536 72.539 534.536 72.539 C 532.136 72.539 530.536 69.039 530.536 67.139 Z M 540.936 61.739 C 538.936 66.339 535.936 69.539 534.236 69.539 C 530.836 69.539 534.136 62.039 538.736 59.839 C 539.436 60.839 540.136 61.339 540.936 61.739 Z M 541.636 59.039 C 540.936 58.739 540.636 58.539 540.436 58.339 C 540.436 58.139 540.436 57.939 540.136 57.539 C 540.521 56.769 540.72 56.833 540.735 56.839 C 541.236 57.139 541.736 57.639 541.636 59.039 Z" id="14" vector-effect="non-scaling-stroke"/><path d="M 576.336 58.839 C 576.536 57.739 577.136 56.639 578.036 55.639 C 579.036 54.539 580.136 56.639 580.136 57.339 C 579.936 58.339 579.436 59.539 578.636 60.639 C 578.936 65.739 587.536 62.539 589.636 61.639 C 590.836 60.939 592.036 63.439 590.736 64.139 C 586.336 66.439 580.636 68.039 577.036 63.139 C 574.936 65.939 568.636 72.739 565.236 72.739 C 561.936 72.739 562.436 67.839 562.636 66.439 C 560.736 68.139 556.236 71.639 553.536 71.339 C 552.436 70.839 551.936 69.539 551.936 69.039 C 551.936 67.139 553.036 65.139 553.836 63.739 C 555.036 61.639 556.636 59.139 558.436 56.939 C 558.836 56.439 559.436 56.439 559.836 56.739 C 560.436 57.339 560.936 58.439 560.336 59.139 C 558.636 61.239 556.936 63.539 554.736 67.939 C 557.236 66.739 561.636 63.939 565.036 60.039 C 565.836 58.539 566.736 57.239 567.536 56.539 C 568.736 55.339 569.936 57.639 569.436 58.539 C 569.036 59.539 568.236 60.539 566.936 62.139 L 566.736 62.439 C 565.636 64.439 564.536 67.139 564.536 69.339 C 567.636 69.239 575.336 61.039 576.236 59.439 L 576.336 58.839 Z" id="15" vector-effect="non-scaling-stroke"/><path d="M 590.736 64.339 C 589.536 66.039 586.236 71.139 591.636 71.139 C 598.836 71.139 610.736 64.239 613.736 61.939 C 615.036 60.939 615.036 63.939 614.036 64.839 C 611.336 67.239 599.936 74.139 592.436 74.139 C 589.136 74.139 586.236 71.739 586.236 68.539 C 586.236 61.439 595.336 54.039 601.336 54.639 C 603.036 54.839 605.336 56.439 605.336 58.239 C 605.336 61.939 595.336 65.539 591.536 64.539 L 590.736 64.339 Z M 602.536 57.639 C 601.136 59.439 597.036 61.639 592.336 62.039 C 594.536 59.839 599.136 56.639 602.536 57.639 Z" id="16" vector-effect="non-scaling-stroke"/><path d="M 619.936 68.139 C 621.436 67.139 623.736 66.739 623.536 69.039 C 623.436 71.239 620.636 72.239 619.536 71.839 C 618.036 71.239 618.136 69.339 619.936 68.139 Z" id="17" vector-effect="non-scaling-stroke"/></g></svg>